<svg xmlns="http://www.w3.org/2000/svg" xmlns:xlink="http://www.w3.org/1999/xlink" width="18" height="18" viewBox="0 0 18 18"><defs><style>.a{fill:#f7a844;}.a,.c{stroke:#f7a844;stroke-width:1.5px;}.b{clip-path:url(#a);}.c{fill:none;stroke-linecap:square;stroke-miterlimit:10;}</style><clipPath id="a"><rect class="a" width="18" height="18" transform="translate(834 194)"/></clipPath></defs><g class="b" transform="translate(-834 -194)"><g transform="translate(834 194)"><path class="c" d="M15.75,9V4.5H2.25A1.687,1.687,0,0,1,.563,2.813V14.625a2.25,2.25,0,0,0,2.25,2.25H15.75v-4.5"/><path class="c" d="M17.438,12.375H13.5a1.687,1.687,0,0,1-1.687-1.687h0A1.687,1.687,0,0,1,13.5,9h3.938Z"/><path class="c" d="M12.375,2.25V1.125H2.25A1.687,1.687,0,0,0,.563,2.813h0A1.687,1.687,0,0,0,2.25,4.5"/></g></g></svg>