<svg xmlns="http://www.w3.org/2000/svg" xmlns:xlink="http://www.w3.org/1999/xlink" width="18" height="18" viewBox="0 0 18 18"><defs><style>.a,.d{fill:#fff;}.a{stroke:#707070;}.b{clip-path:url(#a);}.c{fill:none;}</style><clipPath id="a"><rect class="a" width="18" height="18" transform="translate(30 386)"/></clipPath></defs><g class="b" transform="translate(-30 -386)"><g transform="translate(30 386)"><path class="c" d="M0,0H18V18H0Z"/><path class="d" d="M14.25,6.75a2.25,2.25,0,1,0-2.111-3H1.5v1.5H12.139A2.245,2.245,0,0,0,14.25,6.75Zm0-3a.751.751,0,1,1-.717.75A.751.751,0,0,1,14.25,3.75Z"/><path class="d" d="M6.75,6.75a2.245,2.245,0,0,0-2.111,1.5H1.5v1.5H4.639a2.236,2.236,0,0,0,4.222,0H16.5V8.25H8.861A2.245,2.245,0,0,0,6.75,6.75Zm0,3A.751.751,0,1,1,7.467,9a.751.751,0,0,1-.717.75Z"/><path class="d" d="M14.25,11.25a2.245,2.245,0,0,0-2.111,1.5H1.5v1.5H12.139a2.246,2.246,0,1,0,2.111-3Zm0,3a.751.751,0,1,1,.717-.75A.751.751,0,0,1,14.25,14.25Z"/></g></g></svg>