<svg xmlns="http://www.w3.org/2000/svg" xmlns:xlink="http://www.w3.org/1999/xlink" width="18" height="18" viewBox="0 0 18 18"><defs><style>.a,.c{fill:#fff;}.a{stroke:#707070;}.b{clip-path:url(#a);}</style><clipPath id="a"><rect class="a" width="18" height="18" transform="translate(30 196)"/></clipPath></defs><g class="b" transform="translate(-30 -196)"><g transform="translate(28.076 194.076)"><path class="c" d="M9.622,17.319a7.65,7.65,0,0,0,4.71-1.623l4.231,4.229,1.36-1.36-4.23-4.23a7.688,7.688,0,1,0-6.072,2.985Zm0-13.47A5.773,5.773,0,1,1,3.849,9.622,5.779,5.779,0,0,1,9.622,3.849Z"/><path class="c" d="M10.98,8.261a1.916,1.916,0,0,1,.566,1.36H13.47A3.826,3.826,0,0,0,12.341,6.9,3.934,3.934,0,0,0,6.9,6.9L8.261,8.263a1.967,1.967,0,0,1,2.719,0Z"/></g></g></svg>