<svg xmlns="http://www.w3.org/2000/svg" xmlns:xlink="http://www.w3.org/1999/xlink" width="18" height="18" viewBox="0 0 18 18"><defs><style>.a,.d{fill:#fff;}.a{stroke:#707070;}.b{clip-path:url(#a);}.c{fill:none;}</style><clipPath id="a"><rect class="a" width="18" height="18" transform="translate(30 348)"/></clipPath></defs><g class="b" transform="translate(-30 -348)"><g transform="translate(30 348)"><path class="c" d="M0,0H18V18H0Z"/><path class="d" d="M15,16.5H3A1.5,1.5,0,0,1,1.5,15V12A1.5,1.5,0,0,1,3,10.5H15A1.5,1.5,0,0,1,16.5,12v3A1.5,1.5,0,0,1,15,16.5ZM3,12v3H15V12Z"/><circle class="d" cx="0.75" cy="0.75" r="0.75" transform="translate(12.75 12.75)"/><path class="d" d="M13.5,9.75h-9A1.5,1.5,0,0,1,3,8.25v-6A1.5,1.5,0,0,1,4.5.75h9A1.5,1.5,0,0,1,15,2.25v6A1.5,1.5,0,0,1,13.5,9.75Zm-9-7.5v6h9v-6Z"/></g></g></svg>