<svg xmlns="http://www.w3.org/2000/svg" xmlns:xlink="http://www.w3.org/1999/xlink" width="90" height="90" viewBox="0 0 90 90"><defs><style>.a{fill:#262c49;}.b{fill:#fff;}.c{clip-path:url(#c);}.d{fill:none;}.e{filter:url(#a);}</style><filter id="a" x="0" y="0" width="90" height="90" filterUnits="userSpaceOnUse"><feOffset dy="6" input="SourceAlpha"/><feGaussianBlur stdDeviation="5" result="b"/><feFlood flood-color="#262c49" flood-opacity="0.149"/><feComposite operator="in" in2="b"/><feComposite in="SourceGraphic"/></filter><clipPath id="c"><rect class="a" width="20" height="20" transform="translate(4740 8037)"/></clipPath></defs><g transform="translate(-4705 -8008)"><g class="e" transform="matrix(1, 0, 0, 1, 4705, 8008)"><circle class="b" cx="30" cy="30" r="30" transform="translate(15 9)"/></g><g class="c"><g transform="translate(4740 8037)"><path class="d" d="M0,0H20V20H0Z"/><path class="a" d="M5.345,13.333,13.8,4.882,12.618,3.7,4.167,12.155v1.178ZM6.036,15H2.5V11.464l9.529-9.529a.833.833,0,0,1,1.178,0l2.358,2.357a.833.833,0,0,1,0,1.178ZM2.5,16.667h15v1.667H2.5Z"/></g></g></g></svg>