<svg xmlns="http://www.w3.org/2000/svg" xmlns:xlink="http://www.w3.org/1999/xlink" width="18" height="18" viewBox="0 0 18 18"><defs><style>.a{fill:#fff;}.b{clip-path:url(#a);}.c{fill:none;}</style><clipPath id="a"><rect class="a" width="18" height="18" transform="translate(30 711)"/></clipPath></defs><g class="b" transform="translate(-30 -711)"><g transform="translate(27.632 709.105)"><circle class="c" cx="2.842" cy="2.842" r="2.842" transform="translate(8.526 3.789)"/><path class="a" d="M11.368,1.895a4.737,4.737,0,1,0,4.737,4.737A4.742,4.742,0,0,0,11.368,1.895Zm0,7.579a2.842,2.842,0,1,1,2.842-2.842A2.846,2.846,0,0,1,11.368,9.474Zm8.526,10.421v-.947a6.64,6.64,0,0,0-6.632-6.632H9.474a6.639,6.639,0,0,0-6.632,6.632v.947H4.737v-.947a4.742,4.742,0,0,1,4.737-4.737h3.789A4.742,4.742,0,0,1,18,18.947v.947Z"/></g></g></svg>