<svg xmlns="http://www.w3.org/2000/svg" xmlns:xlink="http://www.w3.org/1999/xlink" width="50" height="50" viewBox="0 0 50 50"><defs><style>.a,.b,.e{fill:#e46666;}.a{stroke:#e46666;}.b{opacity:0.1;}.c{clip-path:url(#a);}.d{fill:none;}</style><clipPath id="a"><rect class="a" width="18" height="18" transform="translate(1034 194)"/></clipPath></defs><g transform="translate(-1030 -98)"><circle class="b" cx="25" cy="25" r="25" transform="translate(1030 98)"/><g class="c" transform="translate(12 -80)"><g transform="translate(1034 194)"><path class="d" d="M0,0H18V18H0Z"/><g transform="translate(-1.5 -1.35)"><path class="e" d="M16.8,7.65a2.7,2.7,0,1,0-2.534-3.6H1.5v1.8H14.267A2.694,2.694,0,0,0,16.8,7.65Zm0-3.6a.9.9,0,1,1-.861.9A.9.9,0,0,1,16.8,4.05Z"/><path class="e" d="M7.8,6.75a2.694,2.694,0,0,0-2.534,1.8H1.5v1.8H5.266a2.683,2.683,0,0,0,5.067,0H19.5V8.55H10.333A2.694,2.694,0,0,0,7.8,6.75Zm0,3.6a.9.9,0,0,1,0-1.8.9.9,0,0,1,0,1.8Z" transform="translate(0 0.9)"/><path class="e" d="M16.8,11.25a2.694,2.694,0,0,0-2.534,1.8H1.5v1.8H14.267a2.7,2.7,0,1,0,2.533-3.6Zm0,3.6a.9.9,0,1,1,.861-.9A.9.9,0,0,1,16.8,14.85Z" transform="translate(0 1.8)"/></g></g></g></g></svg>