<svg xmlns="http://www.w3.org/2000/svg" xmlns:xlink="http://www.w3.org/1999/xlink" width="50" height="50" viewBox="0 0 50 50"><defs><style>.a,.b{fill:#26c76e;}.b{opacity:0.1;}.c{clip-path:url(#a);}</style><clipPath id="a"><rect class="a" width="18" height="18" transform="translate(1234 194)"/></clipPath></defs><g transform="translate(-1230 -98)"><circle class="b" cx="25" cy="25" r="25" transform="translate(1230 98)"/><g class="c" transform="translate(12 -80)"><g transform="translate(1232.2 192.2)"><path class="a" d="M10.536,2.064A.9.9,0,0,0,9.9,1.8H5.4a.9.9,0,0,0-.636.264l-2.7,2.7A.9.9,0,0,0,1.8,5.4V9.9a.9.9,0,0,0,.264.636l9,9a.9.9,0,0,0,1.273,0l7.2-7.2a.9.9,0,0,0,0-1.273l-9-9ZM11.7,17.626l-8.1-8.1V5.772L5.772,3.6H9.527l8.1,8.1Z"/><circle class="a" cx="1.482" cy="1.482" r="1.482" transform="translate(6.035 6.035)"/></g></g></g></svg>