<svg xmlns="http://www.w3.org/2000/svg" xmlns:xlink="http://www.w3.org/1999/xlink" width="20" height="20" viewBox="0 0 20 20"><defs><style>.a{fill:#262c49;}.b{clip-path:url(#a);}.c{fill:none;}</style><clipPath id="a"><rect class="a" width="20" height="20" transform="translate(4407 7973)"/></clipPath></defs><g class="b" transform="translate(-4407 -7973)"><g transform="translate(4407 7973)"><path class="c" d="M0,0H20V20H0Z"/><path class="a" d="M14.167,2.5H17.5a.833.833,0,0,1,.833.833V16.667a.833.833,0,0,1-.833.833H2.5a.833.833,0,0,1-.833-.833V3.333A.833.833,0,0,1,2.5,2.5H5.833V.833H7.5V2.5h5V.833h1.667ZM12.5,4.167h-5V5.833H5.833V4.167h-2.5V7.5H16.667V4.167h-2.5V5.833H12.5Zm4.167,5H3.333v6.667H16.667Z"/></g></g></svg>