<svg xmlns="http://www.w3.org/2000/svg" xmlns:xlink="http://www.w3.org/1999/xlink" width="18" height="18" viewBox="0 0 18 18"><defs><style>.a{fill:#7569ee;}.b{clip-path:url(#a);}</style><clipPath id="a"><rect class="a" width="18" height="18" transform="translate(1065 79)"/></clipPath></defs><g class="b" transform="translate(-1065 -79)"><g transform="translate(1065 79)"><path class="a" d="M9.835,17.533a7.65,7.65,0,0,0,4.71-1.623l4.231,4.229,1.36-1.36-4.23-4.23a7.688,7.688,0,1,0-6.072,2.985Zm0-13.47A5.773,5.773,0,1,1,4.062,9.835,5.779,5.779,0,0,1,9.835,4.062Z" transform="translate(-2.138 -2.138)"/><path class="a" d="M11.747,8.907a1.916,1.916,0,0,1,.566,1.36h1.924a3.826,3.826,0,0,0-1.13-2.721,3.934,3.934,0,0,0-5.438,0L9.028,8.908a1.967,1.967,0,0,1,2.719,0Z" transform="translate(-2.691 -2.57)"/></g></g></svg>