<svg xmlns="http://www.w3.org/2000/svg" width="270.562" height="41.5" viewBox="0 0 270.562 41.5"><defs><style>.a,.b{fill:#7569ee;}.b{stroke:rgba(0,0,0,0);}</style></defs><g transform="translate(-98 -116.087)"><path class="a" d="M20,0h0a0,0,0,0,1,0,0V40a0,0,0,0,1,0,0h0A20,20,0,0,1,0,20v0A20,20,0,0,1,20,0Z" transform="translate(98 117.144)"/><path class="a" d="M13.5,0,27,20.25H0Z" transform="translate(152 137.394) rotate(180)"/><path class="b" d="M12.669,14.131a11.735,11.735,0,0,1-8.407-3.244A10.741,10.741,0,0,1,.85,2.765,10.741,10.741,0,0,1,4.262-5.357,11.735,11.735,0,0,1,12.669-8.6a11.838,11.838,0,0,1,6.266,1.72,11.419,11.419,0,0,1,4.3,4.551L17.932.456a6.133,6.133,0,0,0-2.074-2.526,5.4,5.4,0,0,0-3.189-.958A5.435,5.435,0,0,0,8.633-1.373,5.662,5.662,0,0,0,7,2.765,5.662,5.662,0,0,0,8.633,6.9a5.435,5.435,0,0,0,4.036,1.655A5.4,5.4,0,0,0,15.858,7.6a6.133,6.133,0,0,0,2.074-2.526L23.239,7.86a11.419,11.419,0,0,1-4.3,4.551A11.838,11.838,0,0,1,12.669,14.131ZM35.683,22.1H29.037l4.371-9.668L24.042-8.123h6.69l5.976,14.11,5.932-14.11h6.735ZM52.9,13.652V-17.268h5.887L69.044-.981l10.3-16.287h5.887V13.652H78.767V-5.2L71.23,6.771H66.948L59.366-5.248v18.9Zm56.866-2.809a12.109,12.109,0,0,1-16.591,0,10.747,10.747,0,0,1-3.434-8.078,10.767,10.767,0,0,1,3.434-8.056,12.051,12.051,0,0,1,16.591,0A10.767,10.767,0,0,1,113.2,2.765,10.747,10.747,0,0,1,109.764,10.843Zm-8.3-2.286a5.273,5.273,0,0,0,3.947-1.633A5.729,5.729,0,0,0,107,2.765a5.729,5.729,0,0,0-1.583-4.159,5.273,5.273,0,0,0-3.947-1.633,5.326,5.326,0,0,0-3.992,1.633,5.729,5.729,0,0,0-1.583,4.159,5.729,5.729,0,0,0,1.583,4.159A5.326,5.326,0,0,0,101.469,8.556Zm16.145,5.1V-8.123h6.11v1.829A7.864,7.864,0,0,1,129.79-8.6a8.372,8.372,0,0,1,6.534,2.635,10.014,10.014,0,0,1,2.386,6.99V13.652H132.6V2.024a6.147,6.147,0,0,0-1.048-3.81,3.659,3.659,0,0,0-3.1-1.372,5.273,5.273,0,0,0-4.728,2.482V13.652Zm29.748-24.474a3.807,3.807,0,0,1-2.721-1.11,3.574,3.574,0,0,1-1.16-2.678,3.574,3.574,0,0,1,1.16-2.678,3.807,3.807,0,0,1,2.721-1.11,3.838,3.838,0,0,1,2.788,1.11,3.607,3.607,0,0,1,1.137,2.678,3.607,3.607,0,0,1-1.137,2.678A3.838,3.838,0,0,1,147.363-10.823ZM144.33,13.652V-8.123h6.11V13.652Zm23.727.261a9.4,9.4,0,0,1-6.289-2A7.275,7.275,0,0,1,159.4,6.031V-2.9h-5.4V-8.123h5.4v-6.532h6.11v6.532h6.735V-2.9h-6.735V4.855a3.945,3.945,0,0,0,.825,2.809,3.436,3.436,0,0,0,2.565.849,6.585,6.585,0,0,0,3.077-.74l1.829,4.877A12.239,12.239,0,0,1,168.057,13.913Zm27.072-3.07a12.109,12.109,0,0,1-16.591,0A10.747,10.747,0,0,1,175.1,2.765a10.767,10.767,0,0,1,3.434-8.056,12.051,12.051,0,0,1,16.591,0,10.767,10.767,0,0,1,3.434,8.056A10.747,10.747,0,0,1,195.13,10.843Zm-8.3-2.286a5.273,5.273,0,0,0,3.947-1.633,5.729,5.729,0,0,0,1.583-4.159,5.729,5.729,0,0,0-1.583-4.159,5.273,5.273,0,0,0-3.947-1.633,5.326,5.326,0,0,0-3.992,1.633,5.729,5.729,0,0,0-1.583,4.159,5.729,5.729,0,0,0,1.583,4.159A5.326,5.326,0,0,0,186.834,8.556Zm16.145,5.1V-8.123h6.11V-5.51a4.745,4.745,0,0,1,2.029-2.047,6.235,6.235,0,0,1,3.144-.827,7.793,7.793,0,0,1,2.587.392l-.937,5.618a5.106,5.106,0,0,0-1.873-.261A5.382,5.382,0,0,0,209.09-.2V13.652Z" transform="translate(151.15 134.987)"/></g></svg>