<svg xmlns="http://www.w3.org/2000/svg" width="638.305" height="419.87" viewBox="0 0 638.305 419.87"><defs><style>.a{fill:#150035;}.b{fill:#7569ee;}.c{fill:#fff;}</style></defs><g transform="translate(-168.565 -48.659)"><g transform="translate(564.026 360.991)"><path class="a" d="M471.713,245.1a62.422,62.422,0,0,0,30.423-7.876l-3.555-6.387a55.48,55.48,0,0,1-54.681-.53L284.812,137.565l-3.678,6.32L440.222,236.63A62.548,62.548,0,0,0,471.713,245.1Z" transform="translate(-281.134 -137.565)"/></g><g transform="translate(791.893 418.015)"><path class="a" d="M350.785,189.883c6.411-5.551,15.869-20.228,5.74-36.086l-6.165,3.935c9.288,14.551-3.8,26.13-4.363,26.618Z" transform="translate(-345.997 -153.797)"/></g><g transform="translate(168.565 48.659)"><g transform="translate(0 7.733)"><path class="a" d="M563.169,191.363h.025V159.647l-7.873,1.5c-8.962-17.716-25.529-34.421-49.731-48.392-39.645-22.888-87.215-61.573-139.166-60.846-48.768.675-101.956,39.357-139.169,60.846-24.215,13.985-40.79,30.7-49.748,48.434l-7.845-1.546-.053,33.455v.021h0c0,29.081,19.216,58.152,57.642,80.343,76.866,44.373,201.477,44.373,278.339,0C544.8,250.828,563.952,221.023,563.169,191.363Zm-93.461,61.376c-28.522,16.466-68.209-4.732-105.592-4.732s-72.457,21.2-100.979,4.732c-57.034-32.935-57.034-86.33.007-119.258s149.516-32.931,206.564,0S526.749,219.8,469.708,252.739Z" transform="translate(-165.941 -48.241)"/><path class="a" d="M228.044,279.25c-38.345-22.153-59.472-51.8-59.479-83.533l.074-37.909,9.527,1.89c9.787-17.885,26.973-34.256,49.878-47.486,6.45-3.717,13.378-7.961,20.681-12.429C283.913,78.244,327.706,51.447,369,50.871c.5-.011.994-.011,1.493-.011,41.886,0,80.452,24.4,114.522,45.961,8.754,5.537,17.024,10.771,25.027,15.391,22.905,13.216,40.087,29.58,49.875,47.454l9.559-1.827-.01,36.894c.474,32.113-20.6,62.1-59.423,84.517-38.868,22.448-89.931,33.666-141,33.666S266.916,301.7,228.044,279.25ZM562.157,166.689l-6.236,1.191-1.247-2.466c-8.881-17.548-25.578-33.757-48.283-46.868-8.136-4.7-16.466-9.963-25.283-15.545-33.23-21.022-70.841-44.823-110.63-44.823-.46,0-.92,0-1.384.007-39.272.548-82.121,26.769-116.545,47.837-7.363,4.5-14.347,8.776-20.843,12.524-22.722,13.121-39.427,29.348-48.3,46.917l-1.254,2.477-6.208-1.223-.053,29.025c.01,28.983,19.828,56.388,55.819,77.175,75.734,43.72,198.948,43.713,274.685,0h0c36.729-21.215,56.521-49.211,55.745-78.84l-.063-2.937.084-.021ZM407.7,259.922c-13.532-2.768-27.521-5.631-40.962-5.631-13.606,0-27.043,2.919-40.031,5.744-22.483,4.89-43.706,9.51-62.778-1.511-28.768-16.6-44.612-38.907-44.612-62.789s15.844-46.2,44.612-62.806c57.972-33.462,152.277-33.458,210.232,0,28.768,16.61,44.605,38.914,44.605,62.806s-15.837,46.19-44.605,62.789c-8.653,5.006-18.068,6.787-28.034,6.787C433.994,265.311,421.048,262.658,407.7,259.922Zm1.469-7.167c22.909,4.693,44.552,9.12,61.324-.562,26.411-15.247,40.952-35.306,40.952-56.458s-14.54-41.215-40.952-56.472c-55.928-32.288-146.958-32.288-202.9,0-26.411,15.257-40.948,35.31-40.948,56.472s14.537,41.212,40.948,56.458c16.61,9.587,35.587,5.47,57.568.692,13.36-2.912,27.184-5.919,41.58-5.919C380.918,246.966,395.28,249.909,409.17,252.755Z" transform="translate(-168.565 -50.86)"/></g><g transform="translate(0.007)"><path class="b" d="M505.591,82.95c-76.855-44.373-201.474-44.373-278.336.007s-76.862,116.324,0,160.7,201.477,44.377,278.339,0S582.457,127.327,505.591,82.95ZM469.709,222.938c-57.048,32.924-149.526,32.924-206.564,0s-57.041-86.33,0-119.265,149.516-32.931,206.564,0S526.75,190,469.709,222.938Z" transform="translate(-165.949 -46.115)"/><path class="a" d="M228.039,249.364c-38.352-22.139-59.472-51.8-59.472-83.516s21.12-61.376,59.472-83.519c77.758-44.89,204.256-44.9,282,0,38.355,22.143,59.476,51.8,59.476,83.519s-21.12,61.377-59.476,83.516h0c-38.875,22.448-89.927,33.669-141,33.666S266.911,271.805,228.039,249.364Zm3.661-160.7c-35.991,20.783-55.819,48.2-55.819,77.189s19.828,56.4,55.819,77.185c75.734,43.72,198.958,43.723,274.685,0h0c35.995-20.79,55.819-48.2,55.819-77.185s-19.824-56.4-55.819-77.189c-37.871-21.851-87.6-32.78-137.343-32.78S269.567,66.808,231.7,88.659Zm32.225,139.988c-28.768-16.61-44.612-38.911-44.612-62.8s15.844-46.193,44.612-62.8c57.972-33.472,152.27-33.469,210.232,0h0c28.768,16.6,44.605,38.911,44.605,62.8s-15.837,46.19-44.605,62.8c-28.986,16.733-67.047,25.1-105.117,25.1S292.911,245.38,263.925,228.647ZM470.489,109.386c-55.924-32.292-146.954-32.292-202.9,0-26.411,15.247-40.948,35.306-40.948,56.462s14.537,41.212,40.948,56.469c55.945,32.3,146.961,32.288,202.9,0,26.411-15.257,40.952-35.306,40.952-56.469s-14.54-41.215-40.952-56.462Z" transform="translate(-168.567 -48.659)"/></g><g transform="translate(277.855 221.272)"><rect class="b" width="5.627" height="34.865"/></g><g transform="translate(36.309 183.639)"><rect class="b" width="5.626" height="34.865"/></g><g transform="translate(84.225 209.821)"><rect class="b" width="5.627" height="34.859"/></g><g transform="translate(277.855 46.808)"><rect class="b" width="5.627" height="34.87"/></g><g transform="translate(124.234 43.846)"><rect class="b" width="5.627" height="34.87"/></g><g transform="translate(80.188 58.392)"><path class="c" d="M344.206,80.414c-34.962-20.179-91.634-20.179-126.593.007s-34.962,52.9-.007,73.093,91.638,20.179,126.6,0S379.164,100.6,344.206,80.414Z" transform="translate(-191.391 -65.28)"/></g><g transform="translate(317.292 189.248)"><path class="c" d="M547.648,254.49a2.266,2.266,0,0,0-.833-3.113L288.652,103.668a3.949,3.949,0,0,0-2.378.207l-22.5,12.988c-2.118,1.226-3.843,4.514-3.843,7.339v24.619a3.7,3.7,0,0,0,.913,2.666L518.989,299.158a2.271,2.271,0,0,0,3.088-.829Z" transform="translate(-256.262 -99.912)"/><path class="a" d="M519.8,304.951,261.644,157.284l-.836-.653a7.28,7.28,0,0,1-1.925-5.192V126.819c0-4.117,2.445-8.646,5.67-10.508l22.512-12.995a7.476,7.476,0,0,1,4.989-.611l.548.119L551.253,250.808a5.932,5.932,0,0,1,2.182,8.136L527.86,302.8a5.954,5.954,0,0,1-5.136,2.926A5.816,5.816,0,0,1,519.8,304.951ZM290.262,109.928l-22.041,12.717a5.742,5.742,0,0,0-2.016,4.174l-.095,24.588,256.122,146.5,24.18-41.443Z" transform="translate(-258.883 -102.529)"/><g transform="translate(260.152 148.678)"><path class="b" d="M360.321,181.219l-22.5,12.995c-2.129,1.226-3.843-.077-3.843-2.912V166.692c0-2.832,1.714-6.12,3.843-7.342l22.5-12.995c2.129-1.226,3.847.074,3.847,2.9v24.616C364.168,176.7,362.45,179.989,360.321,181.219Z" transform="translate(-330.312 -142.229)"/><path class="a" d="M336.094,200.2a6.932,6.932,0,0,1-3.158-6.274V169.314c0-4.124,2.445-8.646,5.681-10.511l22.5-12.991a6.031,6.031,0,0,1,6.176-.207,6.92,6.92,0,0,1,3.162,6.274v24.616c0,4.128-2.445,8.649-5.67,10.511L342.27,200a6.761,6.761,0,0,1-3.358.945A5.578,5.578,0,0,1,336.094,200.2Zm25.02-19.526a5.74,5.74,0,0,0,2.009-4.177l-.042-23.369L342.27,165.144a5.724,5.724,0,0,0-2.013,4.17l.046,23.372,20.811-12.015Z" transform="translate(-332.936 -144.851)"/></g><g transform="translate(3.665 32.226)"><path class="a" d="M259.926,111.7v16.682L520.079,277.225V260.876Z" transform="translate(-259.926 -111.702)"/></g></g><g transform="translate(342.343 215.33)"><rect class="a" width="5.625" height="154.601" transform="translate(0 4.884) rotate(-60.244)"/></g><g transform="translate(502.06 307.407)"><rect class="a" width="5.62" height="51.231" transform="translate(0 4.878) rotate(-60.224)"/></g><g transform="translate(169.266 140.53)"><path class="c" d="M250.89,131.65c71.989,0,106.691-38.844,107.081-39.293l-4.24-3.7c-.432.488-44.159,49.172-136.1,34.66l-.882,5.565A219.57,219.57,0,0,0,250.89,131.65Z" transform="translate(-216.747 -88.661)"/></g><g transform="translate(258.16 116.357)"><path class="c" d="M244.176,126.3c37.094-15.113,45.634-41.742,45.982-42.866l-5.382-1.658c-.074.253-8.242,25.262-42.726,39.311Z" transform="translate(-242.051 -81.78)"/></g><g transform="translate(70.061 104.036)"><path class="b" d="M193.465,112c6.137-11.414,15.682-21.156,28.371-28.926l-2.951-4.8c-13.543,8.3-23.762,18.756-30.377,31.069Z" transform="translate(-188.508 -78.273)"/></g><g transform="translate(318.138 230.825)"><rect class="b" width="5.631" height="10.505"/></g></g><g transform="translate(295.61 134.057)"><g transform="translate(29.021 33.579)"><path class="a" d="M233.437,82.631c-5.357,4.356-.917,10.508-.077,11.576.039.056-.053.112-.144.084-1.855-.485-12.485-3.056-20.042.035-.1.039-.225-.028-.148-.088,5.347-4.363.829-10.539-.025-11.614-.046-.053.049-.112.151-.091,1.858.5,12.577,3.095,20.13.007C233.395,82.494,233.514,82.568,233.437,82.631Z" transform="translate(-212.99 -82.526)"/></g><g transform="translate(0 16.822)"><path class="a" d="M225.179,77.857c-5.357,4.36-.917,10.515-.077,11.582.042.049-.053.109-.151.084-1.844-.488-12.485-3.06-20.038.035-.105.042-.221-.028-.148-.091,5.35-4.36.829-10.536-.025-11.614-.046-.053.056-.112.148-.081,1.865.492,12.58,3.088,20.137,0C225.133,77.724,225.249,77.794,225.179,77.857Z" transform="translate(-204.729 -77.756)"/></g><g transform="translate(58.163 16.753)"><path class="a" d="M241.731,77.84c-5.354,4.36-.92,10.508-.074,11.579.039.053-.06.112-.155.088-1.844-.492-12.485-3.06-20.031.028-.109.046-.232-.021-.155-.084,5.35-4.36.829-10.543-.021-11.614-.042-.056.053-.116.155-.088,1.855.492,12.577,3.1,20.13,0C241.682,77.71,241.808,77.773,241.731,77.84Z" transform="translate(-221.285 -77.737)"/></g><g transform="translate(29.142)"><path class="a" d="M233.47,73.067c-5.35,4.363-.913,10.511-.077,11.582.042.06-.049.105-.148.084-1.848-.488-12.482-3.06-20.035.032-.109.046-.225-.028-.151-.091,5.35-4.356.833-10.532-.025-11.607-.042-.06.053-.109.148-.088,1.862.492,12.584,3.091,20.14,0C233.428,72.941,233.547,73.007,233.47,73.067Z" transform="translate(-213.024 -72.968)"/></g></g></g></svg>