<svg xmlns="http://www.w3.org/2000/svg" xmlns:xlink="http://www.w3.org/1999/xlink" width="26" height="26" viewBox="0 0 26 26"><defs><style>.a,.d{fill:#7569ee;}.a{stroke:#7569ee;}.b{clip-path:url(#a);}.c{fill:none;}</style><clipPath id="a"><rect class="a" width="26" height="26" transform="translate(950 1161)"/></clipPath></defs><g class="b" transform="translate(-950 -1161)"><g transform="translate(950 1161)"><path class="c" d="M0,0H26V26H0Z"/><path class="d" d="M14.083,21.558a5.419,5.419,0,0,0,4.333-5.308V13a5.4,5.4,0,0,0-.45-2.167H8.033A5.4,5.4,0,0,0,7.583,13v3.25a5.419,5.419,0,0,0,4.333,5.308V15.167h2.167ZM6,19.164a7.561,7.561,0,0,1-.581-2.914H2.167V14.083h3.25V13a7.594,7.594,0,0,1,.27-2.011L3.289,9.6,4.372,7.729,6.561,8.992q.1-.165.216-.325H19.224c.075.106.146.216.216.325l2.188-1.263L22.711,9.6l-2.4,1.385A7.588,7.588,0,0,1,20.583,13v1.083h3.25V16.25h-3.25A7.54,7.54,0,0,1,20,19.164l2.708,1.564L21.628,22.6l-2.737-1.58a7.584,7.584,0,0,1-11.782,0L4.372,22.6,3.289,20.729,6,19.165ZM8.667,6.5a4.333,4.333,0,0,1,8.667,0Z"/></g></g></svg>