<svg xmlns="http://www.w3.org/2000/svg" width="200.562" height="31" viewBox="0 0 200.562 31"><defs><style>.a,.b{fill:#7569ee;}.b{stroke:rgba(0,0,0,0);}</style></defs><g transform="translate(-98 -116.087)"><path class="a" d="M15,0h0a0,0,0,0,1,0,0V30a0,0,0,0,1,0,0h0A15,15,0,0,1,0,15v0A15,15,0,0,1,15,0Z" transform="translate(98 117)"/><path class="a" d="M10,0,20,15H0Z" transform="translate(138 132) rotate(180)"/><path class="b" d="M9.6,5.7a8.693,8.693,0,0,1-6.228-2.4A7.957,7.957,0,0,1,.85-2.723,7.957,7.957,0,0,1,3.377-8.739a8.693,8.693,0,0,1,6.228-2.4,8.769,8.769,0,0,1,4.642,1.274A8.458,8.458,0,0,1,17.435-6.5L13.5-4.432A4.543,4.543,0,0,0,11.967-6.3,4,4,0,0,0,9.6-7.013a4.026,4.026,0,0,0-2.99,1.226A4.194,4.194,0,0,0,5.409-2.723,4.194,4.194,0,0,0,6.615.342,4.026,4.026,0,0,0,9.6,1.568a4,4,0,0,0,2.362-.71A4.543,4.543,0,0,0,13.5-1.013l3.931,2.065a8.458,8.458,0,0,1-3.188,3.371A8.769,8.769,0,0,1,9.6,5.7Zm17.047,5.9H21.73l3.238-7.161L18.029-10.787h4.956L27.412-.335l4.394-10.452h4.989ZM39.4,5.342v-22.9h4.361L51.364-5.5,59-17.561h4.361v22.9h-4.79V-8.626L52.983.245H49.811L44.2-8.658v14ZM81.527,3.261A8.564,8.564,0,0,1,75.382,5.7a8.564,8.564,0,0,1-6.145-2.435,7.961,7.961,0,0,1-2.544-5.984A7.976,7.976,0,0,1,69.237-8.69a8.534,8.534,0,0,1,6.145-2.452A8.534,8.534,0,0,1,81.527-8.69a7.976,7.976,0,0,1,2.544,5.968A7.961,7.961,0,0,1,81.527,3.261ZM75.382,1.568A3.906,3.906,0,0,0,78.306.358a4.244,4.244,0,0,0,1.173-3.081A4.244,4.244,0,0,0,78.306-5.8a3.906,3.906,0,0,0-2.924-1.21A3.945,3.945,0,0,0,72.425-5.8a4.244,4.244,0,0,0-1.173,3.081A4.244,4.244,0,0,0,72.425.358,3.945,3.945,0,0,0,75.382,1.568Zm11.96,3.774V-10.787h4.526v1.355a5.825,5.825,0,0,1,4.493-1.71A6.2,6.2,0,0,1,101.2-9.19a7.418,7.418,0,0,1,1.768,5.177V5.342H98.442V-3.271a4.554,4.554,0,0,0-.776-2.823,2.71,2.71,0,0,0-2.3-1.016,3.906,3.906,0,0,0-3.5,1.839V5.342Zm22.036-18.129a2.82,2.82,0,0,1-2.015-.823,2.647,2.647,0,0,1-.859-1.984,2.647,2.647,0,0,1,.859-1.984,2.82,2.82,0,0,1,2.015-.823,2.843,2.843,0,0,1,2.065.823,2.672,2.672,0,0,1,.842,1.984,2.672,2.672,0,0,1-.842,1.984A2.843,2.843,0,0,1,109.378-12.787ZM107.131,5.342V-10.787h4.526V5.342Zm17.576.194a6.964,6.964,0,0,1-4.658-1.484A5.389,5.389,0,0,1,118.3-.3V-6.916h-4v-3.871h4v-4.839h4.526v4.839h4.989v3.871h-4.989v5.742a2.922,2.922,0,0,0,.611,2.081,2.545,2.545,0,0,0,1.9.629,4.878,4.878,0,0,0,2.28-.548L128.969,4.6A9.066,9.066,0,0,1,124.707,5.535Zm20.054-2.274A8.564,8.564,0,0,1,138.616,5.7a8.564,8.564,0,0,1-6.145-2.435,7.961,7.961,0,0,1-2.544-5.984,7.976,7.976,0,0,1,2.544-5.968,8.534,8.534,0,0,1,6.145-2.452,8.534,8.534,0,0,1,6.145,2.452A7.976,7.976,0,0,1,147.3-2.723,7.961,7.961,0,0,1,144.761,3.261Zm-6.145-1.694A3.906,3.906,0,0,0,141.54.358a4.244,4.244,0,0,0,1.173-3.081A4.244,4.244,0,0,0,141.54-5.8a3.906,3.906,0,0,0-2.924-1.21,3.945,3.945,0,0,0-2.957,1.21,4.244,4.244,0,0,0-1.173,3.081A4.244,4.244,0,0,0,135.659.358,3.945,3.945,0,0,0,138.616,1.568Zm11.96,3.774V-10.787H155.1v1.935a3.515,3.515,0,0,1,1.5-1.516,4.619,4.619,0,0,1,2.329-.613,5.772,5.772,0,0,1,1.916.29l-.694,4.161a3.782,3.782,0,0,0-1.388-.194A3.987,3.987,0,0,0,155.1-4.916V5.342Z" transform="translate(137.15 134.987)"/></g></svg>